<svg width="730" height="309" viewBox="0 0 730 309" fill="none" xmlns="http://www.w3.org/2000/svg">
<g clip-path="url(#clip0_555_2)">
<path d="M160.231 172.384C160.237 171.435 160.046 170.496 159.669 169.624C159.291 168.752 158.736 167.966 158.038 167.315C157.34 166.665 156.513 166.163 155.61 165.843C154.707 165.522 153.746 165.389 152.788 165.451C151.831 165.514 150.897 165.771 150.044 166.206C149.191 166.641 148.439 167.246 147.833 167.981C147.227 168.717 146.781 169.568 146.523 170.482C146.266 171.395 146.201 172.352 146.334 173.291L126.274 199.25C125.418 200.942 125.086 202.846 125.32 204.723C125.554 206.6 126.343 208.368 127.589 209.804L129.162 211.618L136.382 210.191L144.565 203.056L143.602 194.969L153.711 179.272L153.698 179.261C155.467 179.15 157.127 178.377 158.34 177.099C159.554 175.822 160.23 174.136 160.231 172.384Z" fill="#FFB9B9"/>
<path d="M21.5111 299.296L18.2366 287.278L63.5854 269.079L68.418 286.816L21.5111 299.296Z" fill="#FFB8B8"/>
<path d="M10.5577 305.498L0.000244141 266.748L0.496209 266.616C4.54401 265.539 8.8589 266.095 12.4918 268.162C16.1247 270.229 18.778 273.637 19.8682 277.637L19.8685 277.638L26.3165 301.305L10.5577 305.498Z" fill="#2F2E41"/>
<path d="M83.9768 297.376L73.7917 290.056L97.5151 247.749L112.548 258.552L83.9768 297.376Z" fill="#FFB8B8"/>
<path d="M79.3949 309L46.5525 285.397L46.8546 284.987C49.3202 281.637 53.0314 279.392 57.172 278.745C61.3125 278.099 65.5433 279.104 68.9338 281.541L68.9346 281.541L88.9935 295.957L79.3949 309Z" fill="#2F2E41"/>
<path d="M170.557 238.255L144.926 213.65C142.69 211.502 139.743 210.225 136.629 210.053C133.516 209.881 130.444 210.826 127.979 212.714L79.5837 265.844L83.916 272.503L130.125 241.585L161.412 282.017L191.255 267.271L170.557 238.255Z" fill="#2F2E41"/>
<path d="M159.486 243.488L140.714 242.061L127.119 238.804C126.351 237.62 125.236 236.696 123.922 236.156C122.608 235.616 121.159 235.485 119.768 235.782C118.377 236.078 117.11 236.788 116.139 237.815C115.167 238.842 114.536 240.138 114.33 241.53C114.124 242.921 114.353 244.341 114.987 245.6C115.621 246.86 116.628 247.897 117.875 248.575C119.122 249.252 120.549 249.537 121.964 249.392C123.379 249.246 124.716 248.676 125.794 247.759L125.792 247.769L133.975 251.098L169.113 262.99L173.445 259.66L159.486 243.488Z" fill="#FFB9B9"/>
<path d="M204.733 294.86L194.143 301.52H181.628L123.386 280.115L38.1884 295.336L35.7817 277.26L113.759 243.488L182.11 265.844L204.733 294.86Z" fill="#2F2E41"/>
<path d="M182.11 179.272C192.477 179.272 200.882 170.967 200.882 160.721C200.882 150.476 192.477 142.17 182.11 142.17C171.742 142.17 163.337 150.476 163.337 160.721C163.337 170.967 171.742 179.272 182.11 179.272Z" fill="#FFB9B9"/>
<path d="M230.682 234.788C230.682 245.984 228.897 257.11 225.392 267.756L223.987 272.028L217.248 302.471L210.028 304.373L204.733 297.714L194.143 290.103L186.442 277.736L179.838 266.862L177.778 263.466L170.558 227.791L143.121 212.569L133.976 211.142L135.901 205.91L144.084 194.969L152.267 194.018L154.673 192.115L156.599 193.067L167.212 197.107L201.623 182.74L206.658 183.553L223.986 197.823C228.416 209.656 230.683 222.172 230.682 234.788Z" fill="#CCCCCC"/>
<path opacity="0.1" d="M225.43 230.645L207.139 242.536L179.838 266.862L177.778 263.466L172.001 234.926H173.446L188.367 207.813L225.43 230.645Z" fill="black"/>
<path d="M188.368 204.958L173.446 232.071L164.782 241.585L157.081 243.488L177.778 265.844L207.14 239.682L225.43 227.79L188.368 204.958Z" fill="#CCCCCC"/>
<path d="M167.509 146.928L165.475 147.701C165.166 147.494 164.901 147.23 164.696 146.922C164.491 146.614 164.349 146.27 164.279 145.908C164.208 145.546 164.21 145.174 164.285 144.813C164.36 144.452 164.506 144.109 164.716 143.804C164.726 143.788 164.738 143.772 164.749 143.757L160.99 143.583C163.403 140.407 166.471 137.774 169.99 135.858C173.51 133.941 177.401 132.785 181.407 132.466C185.412 132.147 189.441 132.672 193.225 134.007C197.01 135.342 200.465 137.455 203.361 140.208C203.532 139.625 205.398 140.759 206.159 141.908C206.415 140.96 208.164 145.541 208.783 148.78C209.07 147.702 210.171 149.442 209.206 151.113C209.817 151.024 210.093 152.57 209.62 153.431C210.289 153.121 210.176 154.966 209.451 156.198C210.405 156.115 209.37 175.538 195.049 174.123C194.052 169.596 194.333 169.877 193.159 164.056C192.612 163.483 192.014 162.961 191.416 162.44L188.185 159.621C184.428 156.344 181.01 152.299 176.005 151.074C172.565 150.232 170.39 150.042 172.264 146.211C170.571 146.91 168.989 147.949 167.28 148.597C167.303 148.062 167.542 147.463 167.509 146.928Z" fill="#2F2E41"/>
<path d="M191.496 166.191C193.357 166.191 194.865 164.701 194.865 162.862C194.865 161.023 193.357 159.532 191.496 159.532C189.635 159.532 188.126 161.023 188.126 162.862C188.126 164.701 189.635 166.191 191.496 166.191Z" fill="#FFB9B9"/>
<path d="M34.3686 84.2215L33.3403 99.4792L48.78 100.495L49.8082 85.2376L34.3686 84.2215Z" fill="#E6E6E6"/>
<path d="M24.4073 92.3232L43.1554 93.5571L41.9069 112.084L23.1587 110.85L24.4073 92.3232ZM42.286 94.309L25.1681 93.1824L24.0281 110.099L41.146 111.225L42.286 94.309Z" fill="#CCCCCC"/>
<path d="M121.621 38.9778L106.492 42.1902L109.743 57.1405L124.871 53.9281L121.621 38.9778Z" fill="#E6E6E6"/>
<path d="M111.002 31.7365L114.949 49.8904L96.5791 53.7911L92.6318 35.6372L111.002 31.7365ZM113.979 49.2707L110.375 32.6954L93.6022 36.2569L97.2062 52.8322L113.979 49.2707Z" fill="#CCCCCC"/>
<path d="M105.724 110.774L94.4309 121.228L105.009 132.388L116.303 121.935L105.724 110.774Z" fill="#E6E6E6"/>
<path d="M117.115 109.211L103.401 121.904L90.5562 108.352L104.27 95.6588L117.115 109.211ZM103.439 120.763L115.96 109.173L104.232 96.7999L91.7108 108.39L103.439 120.763Z" fill="#CCCCCC"/>
<path d="M689.753 0H231.924C230.269 -1.85849e-06 228.631 0.3221 227.102 0.947914C225.573 1.57373 224.184 2.49099 223.014 3.64735C221.843 4.80371 220.915 6.1765 220.282 7.68735C219.649 9.19821 219.323 10.8175 219.323 12.4529V264.54C219.323 266.176 219.649 267.795 220.282 269.306C220.915 270.817 221.843 272.19 223.014 273.346C224.184 274.502 225.573 275.42 227.102 276.045C228.631 276.671 230.269 276.993 231.924 276.993H689.753C693.095 276.993 696.3 275.681 698.664 273.346C701.027 271.011 702.355 267.843 702.355 264.54V12.4529C702.355 9.15015 701.027 5.98273 698.664 3.64736C696.3 1.312 693.095 1.8767e-06 689.753 0Z" fill="#3F3D56"/>
<path d="M685.46 22.0077H236.218V272.44H685.46V22.0077Z" fill="white"/>
<path d="M460.455 15.1777C463 15.1777 465.062 13.1391 465.062 10.6244C465.062 8.10969 463 6.07111 460.455 6.07111C457.91 6.07111 455.847 8.10969 455.847 10.6244C455.847 13.1391 457.91 15.1777 460.455 15.1777Z" fill="white"/>
<path d="M556.984 272.44H236.218V22.0081L556.984 272.44Z" fill="#F2F2F2"/>
<path d="M306.51 253.7C330.36 253.7 349.693 234.594 349.693 211.026C349.693 187.458 330.36 168.353 306.51 168.353C282.661 168.353 263.328 187.458 263.328 211.026C263.328 234.594 282.661 253.7 306.51 253.7Z" fill="#4284FF"/>
<path d="M316.123 243.1C305.5 243.1 295.114 239.987 286.281 234.154C277.448 228.321 270.563 220.031 266.497 210.331C262.432 200.632 261.368 189.959 263.441 179.662C265.513 169.365 270.629 159.907 278.141 152.483C285.653 145.06 295.224 140.004 305.644 137.956C316.064 135.908 326.864 136.959 336.679 140.977C346.494 144.994 354.883 151.798 360.786 160.527C366.688 169.257 369.838 179.519 369.838 190.018C369.838 196.989 368.449 203.891 365.75 210.332C363.05 216.772 359.093 222.623 354.106 227.553C349.118 232.482 343.196 236.392 336.679 239.059C330.162 241.727 323.177 243.1 316.123 243.1ZM316.123 137.63C305.638 137.63 295.389 140.702 286.671 146.459C277.953 152.215 271.158 160.397 267.146 169.97C263.134 179.543 262.084 190.076 264.129 200.238C266.175 210.401 271.224 219.735 278.638 227.062C286.052 234.388 295.498 239.378 305.781 241.399C316.064 243.421 326.724 242.383 336.41 238.418C346.097 234.453 354.377 227.738 360.202 219.123C366.027 210.508 369.136 200.379 369.136 190.018C369.136 183.138 367.765 176.326 365.101 169.97C362.437 163.614 358.532 157.839 353.609 152.974C348.686 148.109 342.842 144.25 336.41 141.618C329.979 138.985 323.085 137.63 316.123 137.63L316.123 137.63Z" fill="#3F3D56"/>
<path d="M581.462 152.115H539.498V160.78H581.462V152.115Z" fill="#3F3D56"/>
<path d="M621.164 105.17H499.795V108.883H621.164V105.17Z" fill="#3F3D56"/>
<path d="M621.164 119.76H499.795V123.474H621.164V119.76Z" fill="#3F3D56"/>
<path d="M621.164 134.351H499.795V138.064H621.164V134.351Z" fill="#3F3D56"/>
<path d="M653.676 36.995H636.138V54.3256H653.676V36.995Z" fill="#4284FF"/>
<path d="M661.818 62.372H640.523V41.3276H661.818V62.372ZM641.449 61.457H660.892V42.2426H641.449L641.449 61.457Z" fill="#CCCCCC"/>
<path d="M714.968 267.887H671.125V264.765C671.125 264.684 671.109 264.603 671.077 264.528C671.046 264.453 671 264.385 670.942 264.327C670.883 264.27 670.814 264.224 670.738 264.193C670.662 264.162 670.581 264.146 670.499 264.146H655.467C655.384 264.146 655.303 264.162 655.227 264.193C655.151 264.224 655.082 264.27 655.024 264.327C654.966 264.385 654.919 264.453 654.888 264.528C654.856 264.603 654.84 264.684 654.84 264.765V267.887H645.445V264.765C645.445 264.684 645.429 264.603 645.398 264.528C645.366 264.453 645.32 264.385 645.262 264.327C645.204 264.27 645.135 264.224 645.059 264.193C644.983 264.162 644.901 264.146 644.819 264.146H629.787C629.705 264.146 629.623 264.162 629.547 264.193C629.471 264.224 629.402 264.27 629.344 264.327C629.286 264.385 629.24 264.453 629.208 264.528C629.177 264.603 629.161 264.684 629.161 264.765V267.887H619.766V264.765C619.766 264.684 619.75 264.603 619.718 264.528C619.687 264.453 619.641 264.385 619.582 264.327C619.524 264.27 619.455 264.224 619.379 264.193C619.303 264.162 619.222 264.146 619.14 264.146H604.108C604.025 264.146 603.944 264.162 603.868 264.193C603.792 264.224 603.723 264.27 603.665 264.327C603.607 264.385 603.56 264.453 603.529 264.528C603.497 264.603 603.481 264.684 603.481 264.765V267.887H594.086V264.765C594.086 264.684 594.07 264.603 594.039 264.528C594.007 264.453 593.961 264.385 593.903 264.327C593.845 264.27 593.776 264.224 593.7 264.193C593.624 264.162 593.542 264.146 593.46 264.146H578.428C578.346 264.146 578.264 264.162 578.188 264.193C578.112 264.224 578.043 264.27 577.985 264.327C577.927 264.385 577.881 264.453 577.849 264.528C577.818 264.603 577.802 264.684 577.802 264.765V267.887H568.407V264.765C568.407 264.684 568.391 264.603 568.359 264.528C568.328 264.453 568.281 264.385 568.223 264.327C568.165 264.27 568.096 264.224 568.02 264.193C567.944 264.162 567.863 264.146 567.78 264.146H552.749C552.666 264.146 552.585 264.162 552.509 264.193C552.433 264.224 552.364 264.27 552.306 264.327C552.247 264.385 552.201 264.453 552.17 264.528C552.138 264.603 552.122 264.684 552.122 264.765V267.887H542.727V264.765C542.727 264.684 542.711 264.603 542.68 264.528C542.648 264.453 542.602 264.385 542.544 264.327C542.486 264.27 542.417 264.224 542.341 264.193C542.265 264.162 542.183 264.146 542.101 264.146H527.069C526.987 264.146 526.905 264.162 526.829 264.193C526.753 264.224 526.684 264.27 526.626 264.327C526.568 264.385 526.522 264.453 526.49 264.528C526.459 264.603 526.443 264.684 526.443 264.765V267.887H517.048V264.765C517.048 264.684 517.031 264.603 517 264.528C516.969 264.453 516.922 264.385 516.864 264.327C516.806 264.27 516.737 264.224 516.661 264.193C516.585 264.162 516.504 264.146 516.421 264.146H398.671C398.589 264.146 398.507 264.162 398.431 264.193C398.355 264.224 398.286 264.27 398.228 264.327C398.17 264.385 398.124 264.453 398.092 264.528C398.061 264.603 398.045 264.684 398.045 264.765V267.887H388.65V264.765C388.65 264.684 388.634 264.603 388.602 264.528C388.571 264.453 388.525 264.385 388.466 264.327C388.408 264.27 388.339 264.224 388.263 264.193C388.187 264.162 388.106 264.146 388.024 264.146H372.992C372.909 264.146 372.828 264.162 372.752 264.193C372.676 264.224 372.607 264.27 372.549 264.327C372.491 264.385 372.444 264.453 372.413 264.528C372.381 264.603 372.365 264.684 372.365 264.765V267.887H362.97V264.765C362.97 264.684 362.954 264.603 362.923 264.528C362.891 264.453 362.845 264.385 362.787 264.327C362.729 264.27 362.66 264.224 362.584 264.193C362.508 264.162 362.426 264.146 362.344 264.146H347.312C347.23 264.146 347.148 264.162 347.072 264.193C346.996 264.224 346.927 264.27 346.869 264.327C346.811 264.385 346.765 264.453 346.733 264.528C346.702 264.603 346.686 264.684 346.686 264.765V267.887H337.291V264.765C337.291 264.684 337.275 264.603 337.243 264.528C337.212 264.453 337.165 264.385 337.107 264.327C337.049 264.27 336.98 264.224 336.904 264.193C336.828 264.162 336.747 264.146 336.664 264.146H321.632C321.55 264.146 321.469 264.162 321.393 264.193C321.317 264.224 321.248 264.27 321.19 264.327C321.131 264.385 321.085 264.453 321.054 264.528C321.022 264.603 321.006 264.684 321.006 264.765V267.887H311.611V264.765C311.611 264.684 311.595 264.603 311.563 264.528C311.532 264.453 311.486 264.385 311.428 264.327C311.37 264.27 311.301 264.224 311.225 264.193C311.149 264.162 311.067 264.146 310.985 264.146H295.953C295.871 264.146 295.789 264.162 295.713 264.193C295.637 264.224 295.568 264.27 295.51 264.327C295.452 264.385 295.406 264.453 295.374 264.528C295.343 264.603 295.327 264.684 295.327 264.765V267.887H285.932V264.765C285.932 264.684 285.915 264.603 285.884 264.528C285.852 264.453 285.806 264.385 285.748 264.327C285.69 264.27 285.621 264.224 285.545 264.193C285.469 264.162 285.387 264.146 285.305 264.146H270.273C270.107 264.146 269.948 264.211 269.83 264.327C269.713 264.444 269.647 264.601 269.647 264.765V267.887H260.252V264.765C260.252 264.684 260.236 264.603 260.204 264.528C260.173 264.453 260.127 264.385 260.069 264.327C260.01 264.27 259.941 264.224 259.865 264.193C259.789 264.162 259.708 264.146 259.626 264.146H244.594C244.428 264.146 244.268 264.211 244.151 264.327C244.033 264.444 243.967 264.601 243.967 264.765V267.887H215.156C211.169 267.887 207.346 269.452 204.527 272.238C201.708 275.023 200.124 278.802 200.124 282.742V289.459C200.124 293.398 201.708 297.177 204.527 299.962C207.346 302.748 211.169 304.313 215.156 304.313H714.968C718.955 304.313 722.778 302.748 725.597 299.962C728.416 297.177 730 293.398 730 289.459V282.742C730 280.791 729.611 278.859 728.856 277.057C728.1 275.255 726.993 273.617 725.597 272.238C724.201 270.858 722.544 269.764 720.721 269.018C718.897 268.271 716.942 267.887 714.968 267.887Z" fill="#3F3D56"/>
<path d="M264.032 61.0075C264.032 59.6208 264.332 58.3875 264.932 57.3075C265.532 56.2142 266.366 55.3675 267.432 54.7675C268.512 54.1542 269.732 53.8475 271.092 53.8475C272.759 53.8475 274.186 54.2875 275.372 55.1675C276.559 56.0475 277.352 57.2475 277.752 58.7675H273.992C273.712 58.1808 273.312 57.7342 272.792 57.4275C272.286 57.1208 271.706 56.9675 271.052 56.9675C269.999 56.9675 269.146 57.3342 268.492 58.0675C267.839 58.8008 267.512 59.7808 267.512 61.0075C267.512 62.2342 267.839 63.2142 268.492 63.9475C269.146 64.6808 269.999 65.0475 271.052 65.0475C271.706 65.0475 272.286 64.8942 272.792 64.5875C273.312 64.2808 273.712 63.8342 273.992 63.2475H277.752C277.352 64.7675 276.559 65.9675 275.372 66.8475C274.186 67.7142 272.759 68.1475 271.092 68.1475C269.732 68.1475 268.512 67.8475 267.432 67.2475C266.366 66.6342 265.532 65.7875 264.932 64.7075C264.332 63.6275 264.032 62.3942 264.032 61.0075ZM286.487 68.1875C285.167 68.1875 283.953 67.8808 282.847 67.2675C281.753 66.6542 280.88 65.8008 280.227 64.7075C279.587 63.6008 279.267 62.3608 279.267 60.9875C279.267 59.6142 279.587 58.3808 280.227 57.2875C280.88 56.1942 281.753 55.3408 282.847 54.7275C283.953 54.1142 285.167 53.8075 286.487 53.8075C287.807 53.8075 289.013 54.1142 290.107 54.7275C291.213 55.3408 292.08 56.1942 292.707 57.2875C293.347 58.3808 293.667 59.6142 293.667 60.9875C293.667 62.3608 293.347 63.6008 292.707 64.7075C292.067 65.8008 291.2 66.6542 290.107 67.2675C289.013 67.8808 287.807 68.1875 286.487 68.1875ZM286.487 65.0675C287.607 65.0675 288.5 64.6942 289.167 63.9475C289.847 63.2008 290.187 62.2142 290.187 60.9875C290.187 59.7475 289.847 58.7608 289.167 58.0275C288.5 57.2808 287.607 56.9075 286.487 56.9075C285.353 56.9075 284.447 57.2742 283.767 58.0075C283.1 58.7408 282.767 59.7342 282.767 60.9875C282.767 62.2275 283.1 63.2208 283.767 63.9675C284.447 64.7008 285.353 65.0675 286.487 65.0675ZM300.829 54.0075C302.309 54.0075 303.603 54.3008 304.709 54.8875C305.816 55.4742 306.669 56.3008 307.269 57.3675C307.883 58.4208 308.189 59.6408 308.189 61.0275C308.189 62.4008 307.883 63.6208 307.269 64.6875C306.669 65.7542 305.809 66.5808 304.689 67.1675C303.583 67.7542 302.296 68.0475 300.829 68.0475H295.569V54.0075H300.829ZM300.609 65.0875C301.903 65.0875 302.909 64.7342 303.629 64.0275C304.349 63.3208 304.709 62.3208 304.709 61.0275C304.709 59.7342 304.349 58.7275 303.629 58.0075C302.909 57.2875 301.903 56.9275 300.609 56.9275H298.989V65.0875H300.609ZM313.521 56.7475V59.5875H318.101V62.2275H313.521V65.3075H318.701V68.0475H310.101V54.0075H318.701V56.7475H313.521ZM335.259 54.0075V56.7475H331.539V68.0475H328.119V56.7475H324.399V54.0075H335.259ZM349.136 54.0075V68.0475H345.716V62.2675H340.396V68.0475H336.976V54.0075H340.396V59.5075H345.716V54.0075H349.136ZM355.025 54.0075V68.0475H351.605V54.0075H355.025ZM370.063 68.0475H366.643L360.923 59.3875V68.0475H357.503V54.0075H360.923L366.643 62.7075V54.0075H370.063V68.0475ZM380.682 68.0475L375.962 61.8475V68.0475H372.542V54.0075H375.962V60.1675L380.642 54.0075H384.662L379.222 60.8875L384.862 68.0475H380.682ZM389.907 54.0075V68.0475H386.487V54.0075H389.907ZM404.946 68.0475H401.526L395.806 59.3875V68.0475H392.386V54.0075H395.806L401.526 62.7075V54.0075H404.946V68.0475ZM416.745 58.4475C416.491 57.9808 416.125 57.6275 415.645 57.3875C415.178 57.1342 414.625 57.0075 413.985 57.0075C412.878 57.0075 411.991 57.3742 411.325 58.1075C410.658 58.8275 410.325 59.7942 410.325 61.0075C410.325 62.3008 410.671 63.3142 411.365 64.0475C412.071 64.7675 413.038 65.1275 414.265 65.1275C415.105 65.1275 415.811 64.9142 416.385 64.4875C416.971 64.0608 417.398 63.4475 417.665 62.6475H413.325V60.1275H420.765V63.3075C420.511 64.1608 420.078 64.9542 419.465 65.6875C418.865 66.4208 418.098 67.0142 417.165 67.4675C416.231 67.9208 415.178 68.1475 414.005 68.1475C412.618 68.1475 411.378 67.8475 410.285 67.2475C409.205 66.6342 408.358 65.7875 407.745 64.7075C407.145 63.6275 406.845 62.3942 406.845 61.0075C406.845 59.6208 407.145 58.3875 407.745 57.3075C408.358 56.2142 409.205 55.3675 410.285 54.7675C411.365 54.1542 412.598 53.8475 413.985 53.8475C415.665 53.8475 417.078 54.2542 418.225 55.0675C419.385 55.8808 420.151 57.0075 420.525 58.4475H416.745Z" fill="#4284FF"/>
<path d="M57.6208 28.9778L42.4922 32.1902L45.7429 47.1405L60.8714 43.9281L57.6208 28.9778Z" fill="#E6E6E6"/>
<path d="M47.0022 21.7365L50.9495 39.8904L32.5791 43.7911L28.6318 25.6372L47.0022 21.7365ZM49.9792 39.2707L46.3751 22.6954L29.6022 26.2569L33.2062 42.8322L49.9792 39.2707Z" fill="#CCCCCC"/>
<path d="M195.989 71.2414L180.86 74.4537L184.111 89.404L199.24 86.1916L195.989 71.2414Z" fill="#E6E6E6"/>
<path d="M185.37 64L189.318 82.1539L170.947 86.0546L167 67.9007L185.37 64ZM188.347 81.5342L184.743 64.9589L167.97 68.5204L171.574 85.0958L188.347 81.5342Z" fill="#CCCCCC"/>
</g>
<defs>
<clipPath id="clip0_555_2">
<rect width="730" height="309" fill="white"/>
</clipPath>
</defs>
</svg>
