<svg width="34" height="30" viewBox="0 0 34 30" fill="none" xmlns="http://www.w3.org/2000/svg">
<path d="M17 0C7.6075 0 0 6.88228 0 15.3794C0 22.1848 4.86625 27.9328 11.6237 29.9706C12.4737 30.1052 12.7925 29.6438 12.7925 29.2401C12.7925 28.8748 12.7713 27.6637 12.7713 26.3757C8.5 27.087 7.395 25.4337 7.055 24.5686C6.86375 24.1264 6.035 22.7615 5.3125 22.3963C4.7175 22.1079 3.8675 21.3966 5.29125 21.3774C6.63 21.3582 7.58625 22.4924 7.905 22.9538C9.435 25.2799 11.8788 24.6263 12.8563 24.2226C13.005 23.2229 13.4513 22.5501 13.94 22.1656C10.1575 21.7811 6.205 20.4546 6.205 14.572C6.205 12.8995 6.86375 11.5153 7.9475 10.4388C7.7775 10.0543 7.1825 8.4779 8.1175 6.36323C8.1175 6.36323 9.54125 5.95952 12.7925 7.93962C14.1525 7.59358 15.5975 7.42056 17.0425 7.42056C18.4875 7.42056 19.9325 7.59358 21.2925 7.93962C24.5438 5.9403 25.9675 6.36323 25.9675 6.36323C26.9025 8.4779 26.3075 10.0543 26.1375 10.4388C27.2213 11.5153 27.88 12.8803 27.88 14.572C27.88 20.4738 23.9062 21.7811 20.1238 22.1656C20.74 22.6462 21.2712 23.5689 21.2712 25.0108C21.2712 27.0678 21.25 28.721 21.25 29.2401C21.25 29.6438 21.5688 30.1244 22.4188 29.9706C25.7937 28.9402 28.7265 26.9781 30.8041 24.3605C32.8816 21.743 33.9994 18.6019 34 15.3794C34 6.88228 26.3925 0 17 0Z" fill="#4284FF"/>
</svg>
