<svg width="34" height="30" viewBox="0 0 34 30" fill="none" xmlns="http://www.w3.org/2000/svg">
<path d="M3.86364 0C2.84119 0.00642641 1.86268 0.367661 1.13968 1.0056C0.416682 1.64354 0.00728326 2.50693 0 3.40909V26.5909C0 28.455 1.751 30 3.86364 30H30.1364C32.249 30 34 28.455 34 26.5909V3.40909C34 1.545 32.249 0 30.1364 0H3.86364ZM3.86364 2.72727H30.1364C30.5768 2.72727 30.9091 3.02045 30.9091 3.40909V26.5909C30.9112 26.681 30.8926 26.7705 30.8546 26.854C30.8165 26.9376 30.7596 27.0135 30.6875 27.0772C30.6153 27.1409 30.5292 27.191 30.4345 27.2246C30.3398 27.2582 30.2384 27.2746 30.1364 27.2727H3.86364C3.76152 27.2748 3.66 27.2585 3.5652 27.225C3.4704 27.1915 3.38428 27.1413 3.31206 27.0776C3.23984 27.0139 3.18301 26.9379 3.14499 26.8542C3.10698 26.7706 3.08858 26.681 3.09091 26.5909V3.40909C3.09091 3.02045 3.42318 2.72727 3.86364 2.72727ZM8.40418 5.07136C8.05002 5.06382 7.69772 5.11886 7.36802 5.23324C7.03832 5.34762 6.73788 5.51903 6.48438 5.73738C6.23087 5.95573 6.02942 6.21662 5.89187 6.50469C5.75433 6.79275 5.68347 7.10218 5.68347 7.41477C5.68347 7.72736 5.75433 8.03679 5.89187 8.32486C6.02942 8.61293 6.23087 8.87381 6.48438 9.09216C6.73788 9.31052 7.03832 9.48192 7.36802 9.5963C7.69772 9.71068 8.05002 9.76572 8.40418 9.75818C9.09747 9.74342 9.75673 9.49005 10.2412 9.05219C10.7256 8.61432 10.9967 8.02667 10.9967 7.41477C10.9967 6.80287 10.7256 6.21523 10.2412 5.77736C9.75673 5.33949 9.09747 5.08612 8.40418 5.07136ZM22.3596 11.2923C20.145 11.2923 18.6722 12.3627 18.0633 13.38H17.9659V11.5909H13.6185V24.5455H18.1591V18.1527C18.1591 16.4645 18.5393 14.8295 20.9115 14.8295C23.2483 14.8295 23.2792 16.7359 23.2792 18.2386V24.5455H27.8182V17.4286C27.8182 13.9459 26.979 11.2923 22.3612 11.2923H22.3596ZM6.18182 11.5909V24.5455H10.7703V11.5909H6.18182Z" fill="#4284FF"/>
</svg>
