<svg width="104" height="54" viewBox="0 0 104 54" fill="none" xmlns="http://www.w3.org/2000/svg">
<path d="M14.548 30.064C14.548 28.048 14.956 26.284 15.772 24.772C16.588 23.236 17.704 22.048 19.12 21.208C20.56 20.368 22.156 19.948 23.908 19.948C25.636 19.948 27.136 20.32 28.408 21.064C29.68 21.808 30.628 22.744 31.252 23.872V20.272H34.564V40H31.252V36.328C30.604 37.48 29.632 38.44 28.336 39.208C27.064 39.952 25.576 40.324 23.872 40.324C22.12 40.324 20.536 39.892 19.12 39.028C17.704 38.164 16.588 36.952 15.772 35.392C14.956 33.832 14.548 32.056 14.548 30.064ZM31.252 30.1C31.252 28.612 30.952 27.316 30.352 26.212C29.752 25.108 28.936 24.268 27.904 23.692C26.896 23.092 25.78 22.792 24.556 22.792C23.332 22.792 22.216 23.08 21.208 23.656C20.2 24.232 19.396 25.072 18.796 26.176C18.196 27.28 17.896 28.576 17.896 30.064C17.896 31.576 18.196 32.896 18.796 34.024C19.396 35.128 20.2 35.98 21.208 36.58C22.216 37.156 23.332 37.444 24.556 37.444C25.78 37.444 26.896 37.156 27.904 36.58C28.936 35.98 29.752 35.128 30.352 34.024C30.952 32.896 31.252 31.588 31.252 30.1Z" fill="white"/>
<path d="M9.756 40.324C8.244 40.324 6.888 40.072 5.688 39.568C4.488 39.04 3.54 38.32 2.844 37.408C2.148 36.472 1.764 35.404 1.692 34.204H5.076C5.172 35.188 5.628 35.992 6.444 36.616C7.284 37.24 8.376 37.552 9.72 37.552C10.968 37.552 11.952 37.276 12.672 36.724C13.392 36.172 13.752 35.476 13.752 34.636C13.752 33.772 13.368 33.136 12.6 32.728C11.832 32.296 10.644 31.876 9.036 31.468C7.572 31.084 6.372 30.7 5.436 30.316C4.524 29.908 3.732 29.32 3.06 28.552C2.412 27.76 2.088 26.728 2.088 25.456C2.088 24.448 2.388 23.524 2.988 22.684C3.588 21.844 4.44 21.184 5.544 20.704C6.648 20.2 7.908 19.948 9.324 19.948C11.508 19.948 13.272 20.5 14.616 21.604C15.96 22.708 16.68 24.22 16.776 26.14H13.5C13.428 25.108 13.008 24.28 12.24 23.656C11.496 23.032 10.488 22.72 9.216 22.72C8.04 22.72 7.104 22.972 6.408 23.476C5.712 23.98 5.364 24.64 5.364 25.456C5.364 26.104 5.568 26.644 5.976 27.076C6.408 27.484 6.936 27.82 7.56 28.084C8.208 28.324 9.096 28.6 10.224 28.912C11.64 29.296 12.792 29.68 13.68 30.064C14.568 30.424 15.324 30.976 15.948 31.72C16.596 32.464 16.932 33.436 16.956 34.636C16.956 35.716 16.656 36.688 16.056 37.552C15.456 38.416 14.604 39.1 13.5 39.604C12.42 40.084 11.172 40.324 9.756 40.324Z" fill="white"/>
<rect x="39" y="6" width="6" height="40" fill="#4284FF"/>
<path d="M80.548 30.064C80.548 28.048 80.956 26.284 81.772 24.772C82.588 23.236 83.704 22.048 85.12 21.208C86.56 20.368 88.156 19.948 89.908 19.948C91.636 19.948 93.136 20.32 94.408 21.064C95.68 21.808 96.628 22.744 97.252 23.872V20.272H100.564V40H97.252V36.328C96.604 37.48 95.632 38.44 94.336 39.208C93.064 39.952 91.576 40.324 89.872 40.324C88.12 40.324 86.536 39.892 85.12 39.028C83.704 38.164 82.588 36.952 81.772 35.392C80.956 33.832 80.548 32.056 80.548 30.064ZM97.252 30.1C97.252 28.612 96.952 27.316 96.352 26.212C95.752 25.108 94.936 24.268 93.904 23.692C92.896 23.092 91.78 22.792 90.556 22.792C89.332 22.792 88.216 23.08 87.208 23.656C86.2 24.232 85.396 25.072 84.796 26.176C84.196 27.28 83.896 28.576 83.896 30.064C83.896 31.576 84.196 32.896 84.796 34.024C85.396 35.128 86.2 35.98 87.208 36.58C88.216 37.156 89.332 37.444 90.556 37.444C91.78 37.444 92.896 37.156 93.904 36.58C94.936 35.98 95.752 35.128 96.352 34.024C96.952 32.896 97.252 31.588 97.252 30.1Z" fill="#C4D8FE"/>
<path d="M74.496 19.912C76.032 19.912 77.4 20.236 78.6 20.884C79.8 21.508 80.748 22.456 81.444 23.728C82.14 25 82.488 26.548 82.488 28.372V40H79.248V28.84C79.248 26.872 78.756 25.372 77.772 24.34C76.812 23.284 75.504 22.756 73.848 22.756C72.144 22.756 70.788 23.308 69.78 24.412C68.772 25.492 68.268 27.064 68.268 29.128V40H65.028V28.84C65.028 26.872 64.536 25.372 63.552 24.34C62.592 23.284 61.284 22.756 59.628 22.756C57.924 22.756 56.568 23.308 55.56 24.412C54.552 25.492 54.048 27.064 54.048 29.128V40H50.772V20.272H54.048V23.116C54.696 22.084 55.56 21.292 56.64 20.74C57.744 20.188 58.956 19.912 60.276 19.912C61.932 19.912 63.396 20.284 64.668 21.028C65.94 21.772 66.888 22.864 67.512 24.304C68.064 22.912 68.976 21.832 70.248 21.064C71.52 20.296 72.936 19.912 74.496 19.912Z" fill="#C4D8FE"/>
</svg>
