<svg width="444" height="435" viewBox="0 0 444 435" fill="none" xmlns="http://www.w3.org/2000/svg">
<path d="M221.63 253.605C242.146 253.605 258.778 237.31 258.778 217.21C258.778 197.11 242.146 180.815 221.63 180.815C201.114 180.815 184.482 197.11 184.482 217.21C184.482 237.31 201.114 253.605 221.63 253.605Z" fill="#4284FF"/>
<path d="M221.63 300.585C169.46 300.585 123.876 294.568 89.7621 283.113C67.6361 275.718 48.8401 265.858 35.4461 254.62C21.2381 242.73 13.6901 229.753 13.6901 217.21C13.6901 193.14 40.6261 169.578 85.8401 154.208C122.84 141.592 171.088 134.56 221.556 134.56C271.136 134.56 318.718 141.375 355.496 153.845C377.03 161.095 395.16 170.52 408.036 180.96C422.022 192.415 429.422 204.958 429.422 217.21C429.422 242.223 399.304 267.525 350.76 283.258C316.424 294.423 270.544 300.585 221.63 300.585ZM221.63 151.96C173.752 151.96 126.392 158.775 91.7601 170.593C50.1721 184.803 31.5241 204.233 31.5241 217.21C31.5241 230.695 51.5781 251.938 95.5341 266.655C127.798 277.458 171.458 283.185 221.63 283.185C268.694 283.185 312.576 277.385 345.21 266.728C390.868 251.865 411.736 230.623 411.736 217.21C411.736 210.323 406.408 202.203 396.714 194.3C385.54 185.165 369.26 176.828 349.798 170.23C314.796 158.485 269.286 151.96 221.63 151.96Z" fill="#4284FF"/>
<path d="M137.344 398.605C129.796 398.605 123.136 397.01 117.512 393.82C96.274 381.785 88.874 347.13 97.828 301.092C105.154 263.32 123.062 218.95 148.296 176.102C173.086 134.052 202.834 97.0774 232.212 72.0649C249.38 57.4199 266.77 46.6899 282.458 41.0349C299.552 34.8724 314.352 34.8724 325.156 40.9624C347.282 53.4324 354.608 91.7124 344.248 140.722C336.922 175.522 319.458 217.5 295.038 259.042C268.99 303.267 240.87 338.937 213.712 362.21C196.1 377.29 177.97 388.31 161.394 394.037C152.736 397.082 144.596 398.605 137.344 398.605ZM155.918 180.452L163.614 184.802C139.712 225.402 122.026 268.975 115.218 304.355C107.004 346.767 114.922 372.287 126.318 378.74C129.13 380.335 132.83 381.205 137.344 381.205C152.07 381.205 175.232 372.07 202.02 349.16C227.698 327.192 254.56 292.972 279.646 250.415C303.178 210.467 319.902 170.302 326.858 137.315C336.552 91.1324 328.19 62.8574 316.276 56.1149C310.208 52.7074 300.366 53.1424 288.526 57.4199C274.836 62.3499 259.37 71.9924 243.83 85.2599C215.932 109.04 187.442 144.42 163.614 184.875L155.918 180.452Z" fill="#4284FF"/>
<path d="M305.916 398.822C285.788 398.822 260.258 386.932 233.618 364.457C203.87 339.372 173.604 302.035 148.296 259.187C123.432 217.137 105.672 173.42 98.1981 135.937C93.8321 114.042 93.0181 93.9599 95.8301 77.7924C98.9381 60.1749 106.264 47.6324 117.142 41.4699C139.194 28.9274 176.712 41.8324 214.896 75.1099C241.98 98.6724 270.396 134.487 294.89 175.957C321.012 220.182 338.55 261.87 345.506 296.525C350.02 319 350.76 339.88 347.578 356.845C344.174 374.897 336.478 387.73 325.378 394.037C319.828 397.227 313.242 398.822 305.916 398.822ZM163.688 250.487C187.664 291.087 217.412 327.845 245.236 351.262C278.61 379.392 305.102 385.482 316.572 378.957C328.486 372.215 337.218 344.592 328.19 299.932C321.53 267.162 304.732 227.287 279.572 184.73C255.966 144.782 228.808 110.49 203.13 88.1599C167.166 56.8399 138.01 49.8074 126.096 56.5499C120.028 59.9574 115.514 68.5849 113.368 80.7649C110.926 94.8299 111.666 112.81 115.662 132.602C122.766 168.2 139.786 210.032 163.688 250.487Z" fill="#4284FF"/>
</svg>
