<svg width="34" height="30" viewBox="0 0 34 30" fill="none" xmlns="http://www.w3.org/2000/svg">
<path d="M10.6945 29.9996C13.305 30.0174 15.8928 29.4722 18.3078 28.3957C20.7227 27.3192 22.9168 25.7327 24.7627 23.7283C26.6086 21.7239 28.0697 19.3415 29.0611 16.7192C30.0525 14.0969 30.5546 11.287 30.5382 8.45244V7.46235C31.8914 6.38581 33.0626 5.06291 34 3.55231C32.7258 4.15744 31.3775 4.55877 29.9973 4.74378C31.4607 3.79695 32.5587 2.30659 33.0882 0.548467C31.7243 1.43694 30.2288 2.06152 28.6682 2.39441C27.6172 1.17838 26.2264 0.372358 24.711 0.101056C23.1956 -0.170247 21.6401 0.108294 20.2852 0.893581C18.9303 1.67887 17.8515 2.92712 17.2158 4.4452C16.58 5.96329 16.4227 7.66657 16.7682 9.2915C13.9957 9.14373 11.2829 8.36353 8.80655 7.00171C6.33018 5.63989 4.14574 3.72697 2.39545 1.38753C1.51288 3.05085 1.24537 5.01618 1.64708 6.88561C2.0488 8.75504 3.08972 10.3889 4.55909 11.4563C3.47513 11.4109 2.41624 11.089 1.46818 10.5165V10.6004C1.45855 12.3387 1.99784 14.028 2.99618 15.3869C3.99451 16.7458 5.39159 17.6921 6.95455 18.0681C5.94635 18.3625 4.89027 18.4084 3.86364 18.2024C4.31612 19.6848 5.17987 20.9789 6.33643 21.9073C7.493 22.8357 8.88573 23.3528 10.3236 23.3878C7.86514 25.5366 4.8096 26.7195 1.65364 26.744C1.10029 26.7266 0.548246 26.6762 0 26.593C3.19439 28.8029 6.90695 29.968 10.6945 29.9492" fill="#4284FF"/>
</svg>
